<svg xmlns="http://www.w3.org/2000/svg" width="214" height="39" viewBox="0 0 214 39" fill="none">
  <g filter="url(#filter0_d_1203_5596)">
    <path d="M33.7709 0.00585938L21.485 30.4407H16.3285L4 0.00585938H9.67875L19.0672 23.4821L28.5331 0.00585938H33.7709Z" fill="white"/>
    <path d="M40.3794 27.3308C38.2054 24.9682 37.1184 21.5842 37.1184 17.1789V0.00585938H42.3562V16.9619C42.3562 22.9311 44.7455 25.9158 49.5242 25.9158C54.3029 25.9158 56.6807 22.9311 56.6575 16.9619V0.00585938H61.814V17.1789C61.814 21.587 60.7334 24.971 58.5723 27.3308C56.4112 29.6907 53.3823 30.872 49.4855 30.8748C45.5888 30.8748 42.5534 29.6935 40.3794 27.3308Z" fill="white"/>
    <path d="M150.091 23.3945H135.991L133.214 30.4407H127.798L140.49 0.00585938H145.647L158.377 30.4407H152.911L150.091 23.3945ZM148.362 18.9614L143.043 5.65786L137.763 18.9614H148.362Z" fill="white"/>
    <path d="M166.291 4.78961H156.945V0.00585938H180.874V4.78961H171.528V30.4407H166.291V4.78961Z" fill="white"/>
    <path d="M201.702 23.3945H187.602L184.821 30.4407H179.405L192.124 0.00585938H197.269L210 30.4407H204.522L201.702 23.3945ZM199.969 18.9614L194.65 5.65786L189.374 18.9614H199.969Z" fill="white"/>
    <path d="M93.0471 0.000976562H67.7171C66.3178 0.000976562 65.1833 1.2251 65.1833 2.73514V2.73932C65.1833 4.24936 66.3178 5.47348 67.7171 5.47348H93.0471C94.4465 5.47348 95.5809 4.24936 95.5809 2.73932V2.73514C95.5809 1.2251 94.4465 0.000976562 93.0471 0.000976562Z" fill="white"/>
    <path d="M83.9023 24.9062H67.721C66.3195 24.9062 65.1833 26.1322 65.1833 27.6446C65.1833 29.1569 66.3195 30.3829 67.721 30.3829H83.9023C85.3038 30.3829 86.44 29.1569 86.44 27.6446C86.44 26.1322 85.3038 24.9062 83.9023 24.9062Z" fill="white"/>
    <path d="M83.9062 12.4551H67.7171C66.3178 12.4551 65.1833 13.6792 65.1833 15.1893V15.1934C65.1833 16.7035 66.3178 17.9276 67.7171 17.9276H83.9062C85.3055 17.9276 86.44 16.7035 86.44 15.1934V15.1893C86.44 13.6792 85.3055 12.4551 83.9062 12.4551Z" fill="white"/>
    <path d="M126.653 15.2223C126.703 18.023 126.033 20.7839 124.719 23.1994C123.418 25.5122 121.527 27.3716 119.272 28.555C116.781 29.8506 114.042 30.4968 111.276 30.4418H101.443C101.109 30.4429 100.777 30.3726 100.468 30.235C100.159 30.0974 99.8775 29.8951 99.641 29.6398C99.4044 29.3845 99.2169 29.0813 99.0894 28.7476C98.9618 28.4138 98.8967 28.0562 98.8977 27.6951V17.9189C98.8977 17.1938 99.1647 16.4983 99.6398 15.9856C100.115 15.4728 100.759 15.1848 101.431 15.1848C102.103 15.1848 102.748 15.4728 103.223 15.9856C103.698 16.4983 103.965 17.1938 103.965 17.9189V24.9735H111.044C112.823 25.0127 114.586 24.5995 116.189 23.7671C117.6 23.0218 118.773 21.8405 119.559 20.3734C120.338 18.7868 120.746 17.0182 120.746 15.2223C120.746 13.4264 120.338 11.6579 119.559 10.0712C118.769 8.60594 117.597 7.42411 116.189 6.67335C114.585 5.84498 112.823 5.43327 111.044 5.47115H101.443C100.771 5.47115 100.127 5.18308 99.6514 4.67033C99.1763 4.15757 98.9093 3.46212 98.9093 2.73697C98.9093 2.01183 99.1763 1.31639 99.6514 0.803632C100.127 0.290875 100.771 0.00280915 101.443 0.00280915H111.276C114.035 -0.0482136 116.766 0.596438 119.253 1.88542C121.514 3.06754 123.411 4.92674 124.719 7.24105C126.033 9.65842 126.702 12.4204 126.653 15.2223Z" fill="white"/>
  </g>
  <defs>
    <filter id="filter0_d_1203_5596" x="0" y="0" width="214" height="38.875" filterUnits="userSpaceOnUse" color-interpolation-filters="sRGB">
      <feFlood flood-opacity="0" result="BackgroundImageFix"/>
      <feColorMatrix in="SourceAlpha" type="matrix" values="0 0 0 0 0 0 0 0 0 0 0 0 0 0 0 0 0 0 127 0" result="hardAlpha"/>
      <feOffset dy="4"/>
      <feGaussianBlur stdDeviation="2"/>
      <feComposite in2="hardAlpha" operator="out"/>
      <feColorMatrix type="matrix" values="0 0 0 0 0 0 0 0 0 0 0 0 0 0 0 0 0 0 0.25 0"/>
      <feBlend mode="normal" in2="BackgroundImageFix" result="effect1_dropShadow_1203_5596"/>
      <feBlend mode="normal" in="SourceGraphic" in2="effect1_dropShadow_1203_5596" result="shape"/>
    </filter>
  </defs>
</svg>

